<?xml version="1.0" standalone="no"?>
<!DOCTYPE svg PUBLIC "-//W3C//DTD SVG 20010904//EN"
 "http://www.w3.org/TR/2001/REC-SVG-20010904/DTD/svg10.dtd">
<svg version="1.0" xmlns="http://www.w3.org/2000/svg"
 width="400.000000pt" height="64.000000pt" viewBox="0 0 400.000000 64.000000"
 preserveAspectRatio="xMidYMid meet">

<g transform="translate(0.000000,64.000000) scale(0.100000,-0.100000)"
fill="#000000" stroke="none">
<path d="M1211 595 c-53 -17 -106 -66 -123 -114 -14 -41 -17 -247 -5 -304 5
-21 24 -56 44 -78 88 -97 266 -82 334 28 19 30 24 55 27 130 l4 93 -91 0 -91
0 0 -45 0 -45 40 0 c34 0 40 -3 40 -21 0 -34 -29 -85 -56 -98 -31 -14 -79 -14
-105 -1 -37 20 -49 63 -49 175 0 153 22 195 104 195 37 0 96 -40 96 -66 0 -10
14 -14 56 -14 l56 0 -7 28 c-26 109 -157 175 -274 137z"/>
<path d="M30 555 l0 -45 70 0 70 0 0 -235 0 -235 55 0 55 0 0 235 0 235 75 0
75 0 0 45 0 45 -200 0 -200 0 0 -45z"/>
<path d="M520 320 l0 -280 55 0 55 0 2 172 3 173 110 -172 110 -172 48 0 47
-1 0 280 0 280 -50 0 -50 0 0 -172 c-1 -159 -2 -171 -16 -153 -9 11 -61 89
-115 173 l-99 152 -50 0 -50 0 0 -280z"/>
<path d="M2180 590 c0 -5 14 -10 30 -10 l30 0 0 -90 c0 -53 4 -90 10 -90 6 0
10 37 10 90 l0 90 30 0 c17 0 30 5 30 10 0 6 -30 10 -70 10 -40 0 -70 -4 -70
-10z"/>
<path d="M2360 500 l0 -100 65 0 c37 0 65 4 65 10 0 6 -22 10 -50 10 l-50 0 0
35 c0 34 1 35 40 35 22 0 40 5 40 10 0 6 -18 10 -40 10 -39 0 -40 1 -40 35 l0
35 50 0 c28 0 50 5 50 10 0 6 -28 10 -65 10 l-65 0 0 -100z"/>
<path d="M2546 578 c-10 -14 -16 -44 -16 -80 0 -66 24 -98 72 -98 27 0 68 30
68 50 0 17 -21 11 -40 -12 -15 -20 -21 -21 -44 -10 -24 11 -26 17 -26 70 0 32
5 63 12 70 17 17 57 15 64 -3 6 -16 34 -21 34 -7 0 20 -39 42 -73 42 -26 0
-40 -6 -51 -22z"/>
<path d="M2720 500 c0 -82 3 -100 15 -100 11 0 15 12 15 45 l0 45 40 0 40 0 0
-45 c0 -33 4 -45 15 -45 12 0 15 18 15 100 0 82 -3 100 -15 100 -11 0 -15 -12
-15 -45 l0 -45 -40 0 -40 0 0 45 c0 33 -4 45 -15 45 -12 0 -15 -18 -15 -100z"/>
<path d="M2920 500 c0 -82 3 -100 15 -100 12 0 15 15 15 73 l0 72 48 -72 c26
-40 53 -73 60 -73 9 0 12 27 12 100 0 81 -3 100 -15 100 -11 0 -15 -16 -17
-67 l-3 -67 -44 67 c-61 94 -71 90 -71 -33z"/>
<path d="M3145 586 c-13 -10 -20 -30 -23 -74 -4 -55 -2 -63 21 -86 46 -46 111
-25 123 39 8 44 -2 100 -22 120 -19 19 -74 20 -99 1z m85 -25 c16 -30 12 -107
-6 -125 -38 -38 -74 -5 -74 68 0 28 5 57 12 64 18 18 56 14 68 -7z"/>
<path d="M3320 500 l0 -100 60 0 c71 0 81 18 13 22 l-48 3 -3 88 c-4 121 -22
111 -22 -13z"/>
<path d="M3486 578 c-10 -14 -16 -44 -16 -80 0 -46 4 -61 22 -78 28 -26 72
-26 98 0 28 28 29 139 2 163 -28 25 -87 22 -106 -5z m94 -24 c16 -40 12 -90
-9 -115 -16 -21 -22 -22 -45 -11 -24 11 -26 17 -26 70 0 63 11 82 47 82 16 0
27 -8 33 -26z"/>
<path d="M3677 582 c-26 -28 -23 -136 3 -162 45 -45 120 -11 120 55 0 33 -2
35 -35 35 -19 0 -35 -4 -35 -10 0 -5 9 -10 19 -10 26 0 34 -15 21 -39 -17 -33
-51 -37 -73 -10 -15 19 -18 35 -14 72 6 64 44 88 81 51 24 -23 39 -13 21 14
-21 28 -84 31 -108 4z"/>
<path d="M3860 540 c19 -37 30 -75 30 -100 0 -22 5 -40 10 -40 6 0 10 18 10
40 0 25 11 63 30 100 22 43 26 60 17 60 -8 0 -22 -18 -32 -40 -10 -22 -21 -40
-25 -40 -4 0 -15 18 -25 40 -10 22 -24 40 -32 40 -9 0 -5 -17 17 -60z"/>
<path d="M2210 213 c-18 -24 -21 -38 -18 -87 5 -66 22 -86 73 -86 28 0 65 24
65 43 0 14 -28 7 -34 -8 -7 -18 -47 -20 -64 -3 -7 7 -12 38 -12 70 0 47 3 59
20 68 24 13 56 5 64 -15 7 -19 26 -20 26 -2 0 23 -35 47 -68 47 -21 0 -37 -8
-52 -27z"/>
<path d="M2401 214 c-33 -42 -26 -141 13 -166 22 -15 73 -8 92 13 14 16 19 36
19 79 0 70 -21 100 -71 100 -23 0 -38 -7 -53 -26z m83 -10 c18 -18 22 -95 6
-125 -12 -21 -50 -25 -68 -7 -18 18 -15 113 4 132 8 9 22 16 29 16 7 0 21 -7
29 -16z"/>
<path d="M2590 140 c0 -115 18 -137 22 -27 l3 72 47 -73 c67 -101 78 -97 78
28 0 81 -3 100 -15 100 -11 0 -15 -17 -17 -72 l-3 -71 -48 71 c-26 40 -52 72
-57 72 -6 0 -10 -41 -10 -100z"/>
<path d="M2810 220 c-11 -11 -20 -27 -20 -35 0 -22 37 -55 63 -55 33 0 49 -15
45 -41 -3 -27 -43 -37 -77 -20 -14 8 -22 8 -27 0 -19 -31 92 -41 119 -11 35
38 10 87 -47 94 -37 4 -55 30 -36 53 11 13 23 15 52 11 38 -6 53 6 22 18 -31
12 -74 6 -94 -14z"/>
<path d="M2980 160 c0 -93 16 -120 73 -120 54 0 71 28 76 121 3 67 1 79 -13
79 -13 0 -16 -12 -16 -71 0 -81 -11 -109 -43 -109 -38 0 -47 19 -47 102 0 63
-3 78 -15 78 -12 0 -15 -16 -15 -80z"/>
<path d="M3190 140 l0 -100 65 0 c37 0 65 4 65 10 0 6 -22 10 -50 10 l-50 0 0
90 c0 73 -3 90 -15 90 -12 0 -15 -18 -15 -100z"/>
<path d="M3320 230 c0 -5 14 -10 30 -10 l30 0 0 -90 c0 -73 3 -90 15 -90 12 0
15 17 15 90 0 89 0 90 25 90 14 0 25 5 25 10 0 6 -30 10 -70 10 -40 0 -70 -4
-70 -10z"/>
<path d="M3510 140 c0 -82 3 -100 15 -100 12 0 15 18 15 100 0 82 -3 100 -15
100 -12 0 -15 -18 -15 -100z"/>
<path d="M3610 140 c0 -115 18 -137 22 -27 l3 72 49 -72 c27 -40 55 -73 62
-73 11 0 14 23 14 100 0 82 -3 100 -15 100 -12 0 -15 -15 -15 -72 l0 -73 -48
72 c-26 40 -53 73 -59 73 -10 0 -13 -27 -13 -100z"/>
<path d="M3840 220 c-16 -16 -20 -33 -20 -80 0 -72 21 -100 73 -100 42 0 67
26 67 68 0 30 -2 32 -35 32 -19 0 -35 -4 -35 -10 0 -5 11 -10 25 -10 29 0 33
-21 9 -44 -18 -19 -45 -21 -62 -4 -16 16 -16 120 0 136 18 18 43 15 63 -8 21
-24 35 -26 35 -6 0 21 -40 46 -72 46 -16 0 -37 -9 -48 -20z"/>
</g>
</svg>
